HIERARCHY
ROOT Hips
{
	OFFSET	0.00	0.00	0.00
	CHANNELS 6 Xposition Yposition Zposition Zrotation Xrotation Yrotation
	JOINT LeftUpLeg
	{
		OFFSET	 0.126116	-0.065224	 0.014019
		CHANNELS 3 Zrotation Xrotation Yrotation
		JOINT LeftLeg
		{
			OFFSET	 0.000000	 0.569914	 0.000000
			CHANNELS 3 Zrotation Xrotation Yrotation
			JOINT LeftFoot
			{
				OFFSET	 0.000000	 0.544423	 0.000000
				CHANNELS 3 Zrotation Xrotation Yrotation
				JOINT LeftToeBase
				{
					OFFSET	 0.000000	 0.207117	 0.000000
					CHANNELS 3 Zrotation Xrotation Yrotation
					End Site
					{
						OFFSET	 0.000000	 0.207117	 0.000000
					}
				}
			}
		}
	}
	JOINT RightUpLeg
	{
		OFFSET	-0.124023	-0.065224	 0.008373
		CHANNELS 3 Zrotation Xrotation Yrotation
		JOINT RightLeg
		{
			OFFSET	 0.000000	 0.570047	 0.000000
			CHANNELS 3 Zrotation Xrotation Yrotation
			JOINT RightFoot
			{
				OFFSET	 0.000000	 0.544354	 0.000000
				CHANNELS 3 Zrotation Xrotation Yrotation
				JOINT RightToeBase
				{
					OFFSET	 0.000000	 0.207540	 0.000000
					CHANNELS 3 Zrotation Xrotation Yrotation
					End Site
					{
						OFFSET	 0.000000	 0.207540	 0.000000
					}
				}
			}
		}
	}
	JOINT Spine
	{
		OFFSET	 0.000184	 0.117403	 0.007763
		CHANNELS 3 Zrotation Xrotation Yrotation
		JOINT Spine1
		{
			OFFSET	 0.000000	 0.137269	 0.000000
			CHANNELS 3 Zrotation Xrotation Yrotation
			JOINT Spine2
			{
				OFFSET	 0.000000	 0.156879	 0.000000
				CHANNELS 3 Zrotation Xrotation Yrotation
				JOINT LeftShoulder
				{
					OFFSET	 0.080501	 0.160143	 0.002496
					CHANNELS 3 Zrotation Xrotation Yrotation
					JOINT LeftArm
					{
						OFFSET	 0.000000	 0.164363	 0.000000
						CHANNELS 3 Zrotation Xrotation Yrotation
						JOINT LeftForeArm
						{
							OFFSET	 0.000000	 0.364576	 0.000000
							CHANNELS 3 Zrotation Xrotation Yrotation
							JOINT LeftHand
							{
								OFFSET	 0.000000	 0.360812	 0.000000
								CHANNELS 3 Zrotation Xrotation Yrotation
								JOINT LeftHandIndex1
								{
									OFFSET	 0.000000	 0.086006	 0.000000
									CHANNELS 3 Zrotation Xrotation Yrotation
									JOINT LeftHandIndex2
									{
										OFFSET	 0.000000	 0.047237	 0.000000
										CHANNELS 3 Zrotation Xrotation Yrotation
										JOINT LeftHandIndex3
										{
											OFFSET	-0.004284	 0.038165	 0.000551
											CHANNELS 3 Zrotation Xrotation Yrotation
											End Site
											{
												OFFSET	-0.004284	 0.038165	 0.000551
											}
										}
									}
								}
							}
						}
					}
				}
				JOINT Neck
				{
					OFFSET	 0.000000	 0.176489	 0.000000
					CHANNELS 3 Zrotation Xrotation Yrotation
					JOINT Head
					{
						OFFSET	 0.000000	 0.077941	 0.001747
						CHANNELS 3 Zrotation Xrotation Yrotation
						End Site
						{
							OFFSET	 0.000000	 0.077941	 0.001747
						}
					}
				}
				JOINT RightShoulder
				{
					OFFSET	-0.080363	 0.159706	-0.000306
					CHANNELS 3 Zrotation Xrotation Yrotation
					JOINT RightArm
					{
						OFFSET	 0.000000	 0.164196	 0.000000
						CHANNELS 3 Zrotation Xrotation Yrotation
						JOINT RightForeArm
						{
							OFFSET	 0.000000	 0.365611	 0.000000
							CHANNELS 3 Zrotation Xrotation Yrotation
							JOINT RightHand
							{
								OFFSET	 0.000000	 0.360648	 0.000000
								CHANNELS 3 Zrotation Xrotation Yrotation
								JOINT RightHandIndex1
								{
									OFFSET	 0.000000	 0.069977	 0.000000
									CHANNELS 3 Zrotation Xrotation Yrotation
									JOINT RightHandIndex2
									{
										OFFSET	 0.000000	 0.052305	 0.000000
										CHANNELS 3 Zrotation Xrotation Yrotation
										JOINT RightHandIndex3
										{
											OFFSET	 0.009002	 0.042196	 0.000782
											CHANNELS 3 Zrotation Xrotation Yrotation
											End Site
											{
												OFFSET	 0.009002	 0.042196	 0.000782
											}
										}
									}
								}
							}
						}
					}
				}
			}
		}
	}
}
MOTION
Frames:    10
Frame Time: 0.03333334
-0.018816	 1.255813	 0.123467	 4.927001	 0.260824	 174.046000	-169.709200	 16.424170	 4.734572	 2.484879	-25.184690	 1.175910	 45.934370	 46.465000	-62.507040	 4.912826	 28.009670	-6.307243	-173.210900	 5.353090	 1.054242	-1.717644	-19.177290	 1.778849	-56.631360	 58.120160	 63.259340	-0.384744	 31.181740	 1.641222	 1.483674	 3.765778	-15.606780	 9.756961	 9.921948	-8.138027	-8.362436	-8.127186	 25.211430	-112.519900	 3.073932	 88.306690	-7.005412	 48.744900	 31.594380	 24.740980	-1.244639	 0.212870	-14.101310	-2.636130	-94.868950	-7.964518	 12.552620	-5.846277	-7.228978	 12.654050	 2.802651	 4.963066	-4.014628	-0.346955	 1.473612	-13.847020	 1.375901	-2.490857	 7.818389	-15.801260	 109.071500	 0.715970	-88.616140	-11.383140	 63.997210	 11.251570	-5.309024	-0.674316	 41.868800	-5.644799	 17.999280	-102.202000	 1.969522	 8.184509	 8.959558	 15.203070	 20.274530	-6.351183	-8.239867	-2.131385	 0.447455
-0.020784	 1.256178	 0.133646	 5.107544	 0.128336	 174.268100	-169.113900	 17.105070	 2.461146	 2.556673	-25.818420	 1.299009	 46.167160	 46.283090	-62.270180	 4.912833	 28.009710	-6.307210	-173.452300	 5.974451	 3.527532	-1.704215	-19.038150	 1.558560	-56.342590	 57.622050	 62.830800	-0.404182	 31.205480	 1.660499	 1.711824	 3.560210	-17.603350	 10.867080	 10.498790	-8.425200	-9.604156	-9.133921	 25.035850	-112.409400	 2.935589	 88.287900	-7.251524	 47.881900	 31.157750	 25.380900	-1.234403	-1.094486	-12.104740	-2.120319	-95.837780	-7.837172	 12.656890	-5.877979	-7.229558	 12.629840	 2.799347	 4.963066	-4.014628	-0.346955	 1.359521	-13.673870	 1.434431	-2.478033	 7.875563	-16.610650	 108.933500	 0.821556	-88.669490	-10.498650	 64.185460	 10.829450	-5.785279	-1.097318	 42.839690	-7.067760	 18.406750	-100.228000	 1.860043	 7.889061	 8.956470	 15.203520	 20.340070	-6.369123	-8.239867	-2.131385	 0.447455
-0.022818	 1.256134	 0.143232	 5.229420	-0.052401	 174.590100	-168.591300	 17.808690	 0.310587	 2.624623	-26.412040	 1.457014	 46.508350	 46.063770	-62.101620	 4.912843	 28.009770	-6.307164	-173.765300	 6.737011	 6.074405	-1.715769	-19.157900	 1.251152	-56.391860	 57.139140	 62.764740	-0.432005	 31.239430	 1.688092	 1.967153	 3.331513	-20.475250	 11.742240	 10.910240	-8.674989	-10.612920	-9.948236	 24.893550	-112.251600	 2.737678	 88.261460	-7.337249	 47.198710	 30.477960	 26.021510	-1.206802	-2.967985	-10.189600	-1.610729	-97.170550	-7.654861	 12.805890	-5.923752	-7.230388	 12.595230	 2.794621	 4.963066	-4.014628	-0.346955	 1.196184	-13.426430	 1.518677	-2.430290	 8.232914	-17.828930	 108.736300	 0.972742	-88.745320	-9.369576	 64.315370	 10.366990	-6.486413	-1.692206	 44.220400	-8.168709	 18.737420	-97.573270	 1.703567	 7.466517	 8.951069	 15.204210	 20.433790	-6.394792	-8.239867	-2.131385	 0.447455
-0.024977	 1.255571	 0.152237	 5.285978	-0.285159	 175.022000	-168.150400	 18.547650	-1.756956	 2.691406	-26.989510	 1.650190	 46.981030	 45.815250	-62.017460	 4.912857	 28.009840	-6.307103	-174.192500	 7.685693	 8.758242	-1.760613	-19.620640	 0.863232	-56.815450	 56.702940	 63.109950	-0.468871	 31.284340	 1.724654	 2.217221	 3.069488	-24.216980	 12.391680	 11.183320	-8.857847	-11.393420	-10.579000	 24.777180	-112.042900	 2.475656	 88.227340	-7.223192	 46.678630	 29.511570	 26.590230	-1.157593	-5.446091	-8.250178	-1.081882	-98.792690	-7.413227	 13.002880	-5.985118	-7.231492	 12.549410	 2.788367	 4.963066	-4.014628	-0.346955	 0.979688	-13.099300	 1.631159	-2.338597	 8.931741	-19.487830	 108.475600	 1.173256	-88.844870	-7.869451	 64.369540	 9.759898	-7.428870	-2.458244	 46.031350	-8.996529	 19.023470	-94.116410	 1.496616	 6.907264	 8.942141	 15.205190	 20.557820	-6.428788	-8.239867	-2.131385	 0.447455
-0.027011	 1.254578	 0.159664	 5.273091	-0.538586	 175.504600	-167.841800	 19.254000	-3.526715	 2.754859	-27.532730	 1.852251	 47.538300	 45.588000	-62.048020	 4.912870	 28.009920	-6.307034	-174.706800	 8.696156	 11.286520	-1.832231	-20.354100	 0.459092	-57.520920	 56.372320	 63.778290	-0.509807	 31.334110	 1.765253	 2.406404	 2.811716	-28.230350	 12.764040	 11.320720	-8.938905	-11.875380	-10.975200	 24.693530	-111.811600	 2.184962	 88.190630	-6.872993	 46.365060	 28.345660	 26.929500	-1.090368	-8.183571	-6.439939	-0.580071	-100.400200	-7.144819	 13.220990	-6.054219	-7.232722	 12.498610	 2.781433	 4.963066	-4.014628	-0.346955	 0.739189	-12.737060	 1.757193	-2.204351	 9.884061	-21.369440	 108.186900	 1.396122	-88.954220	-6.146495	 64.339550	 9.035984	-8.491452	-3.276866	 48.010280	-9.507092	 19.243490	-90.303310	 1.267297	 6.287144	 8.929875	 15.206370	 20.695340	-6.466517	-8.239867	-2.131385	 0.447455
-0.029315	 1.252989	 0.167091	 5.199590	-0.856279	 176.130300	-167.593500	 20.103000	-5.364648	 2.838236	-28.238280	 2.105812	 48.325590	 45.364320	-62.252620	 4.912890	 28.010030	-6.306945	-175.427300	 9.928759	 14.196780	-1.940099	-21.445900	-0.029025	-58.601400	 56.072530	 64.831900	-0.563396	 31.399100	 1.818402	 2.567632	 2.528872	-33.192000	 12.939750	 11.366980	-8.922788	-12.152640	-11.219100	 24.632040	-111.509800	 1.804865	 88.144440	-6.099647	 46.218230	 26.662300	 26.996910	-0.987186	-11.729520	-4.363754	 0.004887	-102.236200	-6.793290	 13.505550	-6.146194	-7.234337	 12.432230	 2.772372	 4.963066	-4.014628	-0.346955	 0.424178	-12.264460	 1.923975	-1.974025	 11.320090	-23.892960	 107.810200	 1.688169	-89.095440	-3.886049	 64.211130	 8.083220	-9.898409	-4.293595	 50.538820	-9.789035	 19.425560	-85.418680	 0.967792	 5.476821	 8.910110	 15.208060	 20.875060	-6.515879	-8.239867	-2.131385	 0.447455
-0.031051	 1.250493	 0.166586	 5.027335	-1.216651	 176.850900	-167.893600	 21.144790	-5.356018	 2.980342	-29.419570	 2.407348	 49.262940	 45.509530	-63.128530	 4.912912	 28.010150	-6.306842	-176.071800	 11.037040	 15.648980	-2.095792	-22.992990	-0.551630	-60.146830	 56.090940	 66.632730	-0.625413	 31.474100	 1.879911	 2.640910	 2.305105	-38.143690	 12.784000	 11.147900	-8.624732	-12.053710	-11.057080	 24.195220	-111.161700	 1.365669	 88.093620	-5.487669	 46.517180	 25.143080	 27.643390	-0.898624	-15.730890	-2.749078	 0.279639	-103.040600	-6.386251	 13.833450	-6.254776	-7.236216	 12.355580	 2.761909	 4.963066	-4.014628	-0.346955	 0.059365	-11.719850	 2.119497	-1.643107	 13.096610	-26.636410	 107.376100	 2.026558	-89.256130	-1.577993	 64.266330	 7.282316	-11.542920	-5.386621	 53.357680	-9.879699	 18.923160	-79.170070	 0.622064	 4.541281	 8.882031	 15.210220	 21.082580	-6.572959	-8.239867	-2.131385	 0.447455
-0.031920	 1.248073	 0.163097	 4.603845	-1.649107	 177.688200	-168.696900	 22.222090	-4.429259	 3.115664	-30.519470	 2.725960	 50.158220	 45.688010	-64.148500	 4.912937	 28.010300	-6.306723	-176.874000	 12.130790	 16.532720	-2.266423	-24.648370	-1.093783	-61.902240	 56.170880	 68.711450	-0.697064	 31.560470	 1.950977	 2.573069	 2.300400	-41.621900	 11.870300	 9.989855	-7.311669	-11.079940	-9.646255	 21.633510	-110.761200	 0.859160	 88.038340	-4.056228	 47.736080	 23.147580	 27.656690	-0.768765	-20.218990	-0.453409	 0.254269	-98.501270	-5.915661	 14.210380	-6.383074	-7.238398	 12.267240	 2.749851	 4.963066	-4.014628	-0.346955	-0.362508	-11.093810	 2.348721	-1.287208	 14.870620	-28.599620	 106.876900	 2.417990	-89.438160	 0.347631	 64.099010	 7.096822	-13.449020	-6.530067	 56.443240	-9.268052	 16.540820	-67.684460	 0.223627	 3.463568	 8.842708	 15.212990	 21.321740	-6.638853	-8.239867	-2.131385	 0.447455
-0.038699	 1.247100	 0.150969	 3.564831	-3.218346	-179.319200	-171.362400	 25.262520	-1.865771	 3.461090	-33.216210	 3.196155	 50.361350	 46.543360	-65.686430	 5.083057	 30.148830	-5.673112	-179.049900	 13.837000	 19.341730	-2.426108	-26.158850	-1.575187	-64.104230	 56.391450	 71.177650	-0.816936	 31.544020	 2.075433	 2.308441	 2.675822	-43.301330	 10.084680	 8.415067	-4.920515	-10.370410	-7.553465	 18.319960	-110.758300	-1.731605	 87.244400	-2.228159	 47.888920	 20.184240	 30.840580	-0.757089	-24.848520	 0.647382	-0.063001	-89.793460	-5.295723	 15.028030	-6.543519	-7.258019	 12.294410	 2.763386	 4.963066	-4.014628	-0.346955	-0.450048	-10.265300	 2.128100	 0.035703	 15.879900	-31.720060	 105.485900	 5.026255	-90.186280	 7.253994	 65.058820	 5.717505	-15.647980	-7.595438	 59.316290	-12.922740	 11.668470	-55.672290	 3.302478	-5.877239	 8.674288	 14.642480	 19.328160	-5.908407	-8.239867	-2.131385	 0.447455
-0.044438	 1.247033	 0.137148	 2.342059	-5.484835	-175.281400	-175.114500	 29.186670	 2.036782	 3.958253	-36.822270	 3.835419	 50.389440	 47.898570	-67.963780	 5.208827	 33.146990	-4.896129	 178.180900	 15.721820	 23.331510	-2.554560	-27.346060	-2.081146	-66.744920	 56.596650	 73.898580	-0.951457	 31.339710	 2.222618	 2.015804	 3.268376	-43.387160	 7.301111	 6.831633	-2.445771	-9.253711	-5.135292	 14.548600	-110.830300	-4.894994	 86.275310	 1.143532	 48.113250	 15.722550	 34.143260	-0.721497	-29.565830	 1.830066	-0.508701	-78.910800	-4.588880	 15.919350	-6.746116	-7.284524	 12.360500	 2.786104	 4.963066	-4.014628	-0.346955	-0.289428	-9.418116	 1.693297	 1.842811	 16.548030	-35.580310	 103.729400	 8.468242	-90.960370	 14.427110	 67.019200	 5.390329	-19.491660	-8.668389	 62.109630	-14.459000	 4.027069	-45.176200	 7.805360	-18.418930	 9.308336	 13.948230	 16.687660	-4.991897	-8.239867	-2.131385	 0.447455
